<?xml version="1.0" standalone="no"?>
<!DOCTYPE svg PUBLIC "-//W3C//DTD SVG 20010904//EN"
 "http://www.w3.org/TR/2001/REC-SVG-20010904/DTD/svg10.dtd">
<svg version="1.0" xmlns="http://www.w3.org/2000/svg"
 width="64.000000pt" height="50.000000pt" viewBox="0 0 64.000000 50.000000"
 preserveAspectRatio="xMidYMid meet">

<g transform="translate(0.000000,50.000000) scale(0.100000,-0.100000)"
fill="#000000" stroke="none">
<path d="M220 397 l0 -89 -87 2 c-132 4 -123 9 -123 -61 l0 -61 103 3 102 4
-3 -39 c-2 -21 -1 -58 3 -82 l6 -44 50 0 49 0 0 84 0 84 156 7 155 7 -6 42
c-4 22 -8 42 -9 42 -1 3 -256 7 -282 5 -14 -1 -26 -12 -34 -31 -19 -46 -25
-27 -7 22 8 24 18 73 21 109 l5 67 -49 9 -50 10 0 -90z m185 -157 c-4 -12 -9
-19 -12 -17 -3 3 -2 15 2 27 4 12 9 19 12 17 3 -3 2 -15 -2 -27z"/>
</g>
</svg>
